#define result_width 7
#define result_height 7
static char result_bits[] = {
0x08,0x10,0x20,0x40,0x20,0x10,0x08
};
